<svg version="1.0" xmlns="http://www.w3.org/2000/svg" width="400" height="400" viewBox="0 0 300 300"><path d="M113 5c-1.9.4-2.6 1.3-2.8 3.7-.3 2.8-.1 3 2.3 2.5 2.9-.5 3.8-2 3.3-4.9-.2-1.5-.9-1.8-2.8-1.3zM145 10.2c-4.1 5.6-4.1 10.8-.1 14.9 3.3 3.3 5 3.5 9.1 1.4l3-1.6v5.6c0 5.2.1 5.5 2.5 5.5h2.5V6h-2.5c-2 0-2.5.5-2.5 2.7v2.7l-2.8-2.7c-3.8-3.7-5.7-3.4-9.2 1.5zm11.2 5.3c1.6 3.5-.3 7.5-3.5 7.5-3 0-4.7-1.8-4.7-5 0-5.2 6.1-7.1 8.2-2.5zM130 7.8c0 .4-1.6 1.4-3.6 2.1-2.1.8-3.9 2.2-4.5 3.8-2.1 5.5-.5 7.7 5.7 7.8 2.6 0 4.9.6 5.1 1.2.6 1.7-3.2 3.4-7.8 3.5-3.1 0-3.9.4-3.9 1.9s.7 1.8 3.8 1.8c3.9-.1 9.8-1.7 12-3.2 1.7-1.3 1.5-6.2-.4-7.8-.8-.7-3.4-1.3-5.6-1.3-2.4-.1-4.3-.6-4.5-1.3-.6-1.8 4.5-3.5 7.9-2.8 2.6.6 2.8.4 2.8-2.4 0-2.9-2-4.6-2-1.9-.1.8-.6.6-1.4-.5-1.4-1.7-3.6-2.3-3.6-.9zM169 15.5c0 8.5 0 8.6 3.6 12.2 3.2 3.2 3.8 3.4 6 2.4 3.3-1.5 4.4-1.4 4.4.3 0 .7 1.1 1.6 2.5 1.9l2.6.4-.3-10.6c-.3-10.1-.4-10.6-2.5-10.9-2.2-.3-2.3 0-2.3 5.5 0 6.9-1.5 9.6-5.1 9.1-2.3-.3-2.4-.6-2.7-9.6l-.3-9.2H169v8.5zM113 13c-2.5.6-2.5.7-2.7 12-.1 6.3.1 10.9.3 10.2.3-.6 1.4-1.2 2.5-1.2 2.7 0 3-1.3 2.7-12.1l-.3-9.5-2.5.6zM102 17.1c-4 5.6-3.9 5.6-4 3.1 0-2.5 0-2.5-3.4-1.2-2.6.9-2.6 1.1-2.6 11.9v11l3-1c2.9-1.1 3-1.3 3-7.1 0-7.2 2.3-12.6 5.6-13.4 1.7-.4 2.4-1.3 2.4-3 0-3-2.1-3.1-4-.3zM196.5 18.4c-1.8 1.8-2.5 3.6-2.5 6.2 0 3.5 2.6 9.4 4.3 9.4.4 0 1.9 1.2 3.2 2.6 1.6 1.7 3.6 2.7 5.5 2.8 1.6.1 3 .4 3 .8 0 .5.7.8 1.5.8.9 0 1.5-.9 1.5-2.5s-.6-2.5-1.5-2.5c-3.8 0-9.5-2.6-10.4-4.8-1.4-3-1.4-3.7.2-2.4.6.6 2.9 1.3 5 1.7 2 .4 3.7 1.1 3.7 1.6s.9.9 2 .9c2.5 0 2.7-4.2.5-8-.8-1.4-1.7-3.2-2-4-.6-1.6-4.1-3.4-8.8-4.4-2.1-.5-3.3-.1-5.2 1.8zm11.3 6.5c.3 1.9 0 2.1-2.5 1.5-3.9-.9-6.3-3.2-4.4-4.3 2.2-1.4 6.6.3 6.9 2.8zM219 34c0 6 .3 11 .8 11 .4 0 1.7.3 3 .6 2.1.6 2.2.4 2.2-5 0-4.2.5-6.1 2-7.6 1.1-1.1 2.2-1.5 2.5-1 1.2 2 3.5 1 3.5-1.5 0-1.4-.3-2.5-.7-2.6-.5 0-1.6-.2-2.5-.4-1-.2-2 .1-2.4.6-1 1.7-2.4.9-2.4-1.5 0-2.1-2-3.5-5.2-3.6-.5 0-.8 4.9-.8 11zM237 26.4c0 1.4.7 2.6 1.8 3 .9.3 2.3.9 3 1.2 1.9.9 1.5-3.7-.5-5.2-2.7-2-4.3-1.7-4.3 1zM81.5 26c-1.1.4-2.6.5-3.2.3-.7-.3-1.3 0-1.3.6s-.6 1.1-1.3 1.1c-.7 0-2.5 1.4-4 3.1C69 34.2 68.2 37 70 37c.6 0 1-.4 1-.9 0-1.3 7-5.2 8.1-4.6 1.4.9 1.1 2.5-.6 2.5-.8 0-1.5.4-1.5 1 0 .5-.6 1-1.4 1-.7 0-3 1.8-5 4.1-2.9 3.2-3.7 4.7-3.4 7.2.3 3 .5 3.2 4.1 3 2.7-.2 4.4-1 6.2-3 1.3-1.6 2.5-2.2 2.5-1.6 0 1.5 3 1.8 3 .3 0-.6.7-1 1.5-1 1.2 0 1.5-1.7 1.5-8.9 0-9.4-.9-11.4-4.5-10.1zM80 39.2c0 .7-1.1 2.6-2.4 4.3-1.9 2.3-2.7 2.7-3.6 1.9-1.5-1.5-.3-5.4 1.6-5.4.8 0 1.4-.5 1.4-1 0-.6.7-1 1.5-1s1.5.6 1.5 1.2zM56.6 33.6c-3.1 2.7-4.2 4.8-5.6 10.2-1 3.7-2.4 8.2-3 10l-1.2 3.3-2.9-4.6c-2.6-4-4.9-5.8-4.9-3.7 0 .4-1.3 2.2-3 4l-3 3.3v27l2.5-2.7C37.8 77.9 38 77 38 68.1c0-5.3.5-10.3 1-11.1.8-1.3 1-1.3 1 .2 0 .9 1.2 3.1 2.6 4.8 2.5 2.9 2.8 3 4.5 1.4 1-.9 2.5-4.1 3.4-7.2 1-3.2 2.3-7.3 3.1-9.2 1.2-3.4 1.3-3.2 1.3 5.2.1 9.3 1 10.8 4.5 6.9 1.4-1.5 1.6-3.8 1.4-15.4l-.3-13.6-3.9 3.5zM237 41.9c0 9.4.2 10.9 1.8 11.5.9.3 2.3.9 3 1.2.9.4 1.2-1.9 1.2-10.2 0-9-.3-10.9-1.7-12-3.8-2.9-4.3-1.9-4.3 9.5zM250 43.1c0 1.5.5 1.9 1.5 1.5.8-.3 1.5-.1 1.5.4 0 .6.6 1 1.3 1 1.9.1 5.4 3.4 6.2 6 .7 2.3.7 2.3-2.1-.3-1.9-1.8-3.6-2.5-5.6-2.3-1.6.2-2.8-.1-2.8-.8 0-2-2 1.8-2 4 0 2.9 2.3 7.4 3.8 7.4.6 0 1.2.6 1.2 1.4 0 1.2 3.2 2.7 6.3 3 .4.1 1.3 1.2 2 2.5s2.2 3.1 3.5 3.9l2.2 1.4v-9c0-6.7-.4-9.3-1.5-10.2-.8-.7-1.5-1.8-1.5-2.6 0-.7-.9-1.8-2-2.4-1.1-.6-2-1.7-2-2.5s-.7-1.5-1.5-1.5-1.5-.5-1.5-1.1c0-.6-.9-.9-2-.6-1.1.3-2 .1-2-.4s-.7-.9-1.5-.9c-.9 0-1.5.9-1.5 2.1zM261 60c0 .9-.7 1.7-1.5 1.7-2.2 0-5.8-4.4-5.1-6.2.5-1.4 1-1.3 3.6.6 1.6 1.3 3 3 3 3.9zM179.5 43.2c-4.6 1.7-8.4 4.6-10 7.8-1.6 3.2-3.5 17.3-3.5 26.8 0 7.3-1.1 8.3-6.6 5.7-6.7-3.2-9.2-3.4-16.7-1.9-3.9.8-7.6 1.9-8.2 2.3-1 .9-7.5 2.5-7.5 1.9-1.5-22.9-2.2-30.4-3.4-33.1-3.1-7.6-13.4-10.7-21.6-6.5-3.6 1.8-5.1 3.5-7.5 8.2l-3 6v83.1l-3.7 9.5c-2 5.2-3.5 9.6-3.2 9.9.2.2 1.8-.8 3.4-2.4 4.6-4.4 6.2-10.9 6.7-27.8.3-8.1.9-14.7 1.2-14.7.6 0 2.4 8 3.8 16.9.4 2.3 0 4.6-1.2 6.8-1.7 3.1-1.7 3.6-.2 9.3 2.3 8.3 2.2 9.2-2 14.9l-3.8 5.1-9.5-.2c-10.1-.1-11.5.2-22.5 5.9-11.5 5.9-17.3 10-25.1 17.8-5.9 5.9-8.3 9.3-11.4 15.7-5 10.9-5.7 13.8-3.1 13.8 1.1 0 3.5-1.3 5.3-2.8 9.2-7.8 19.6-15.2 21.3-15.2 1.6 0-6.8 8.1-11.3 10.7-4 2.4-8.2 6.6-8.2 8.4 0 .5 1.5 1.6 3.2 2.5 1.8.9 4.7 3.3 6.5 5.2 3.1 3.3 3.2 3.4 7 2.2 2.1-.7 4.9-2.1 6.2-3.1 2.9-2.3 5.4-2.4 8.4-.4 3.8 2.5 11.8-.1 22.1-7.2 4.8-3.3 7-3.7 4.7-1-.6.8-1.4 3.4-1.7 5.8-.8 5.8 1 7.7 4.7 5.1 1.3-.9 4.6-2.6 7.4-3.7 4.3-1.7 5.2-2.6 6.3-6 1.8-5.4 2.7-6.3 10.2-9.9 7.2-3.5 7.9-4.8 5.9-10.8-2.1-6.5.2-6.7 5-.5 6.6 8.7 10.9 11.1 20.1 11.5 10 .5 14.7-.9 19.3-5.6 3.1-3.1 4.1-5.3 5.3-10.8.9-3.8 1.6-8.3 1.6-9.9 0-1.7.7-4.4 1.5-6.1 2-3.8 1.1-9.4-1.8-12-2-1.8-2-1.8-1.4.8.7 2.6.5 2.7-2.7 2.2-5.4-.9-6.2-1.1-8.1-1.9-1.7-.7-1.7-.8 0-2.1 1.6-1.2 1.6-1.3.2-1.4-.9 0-3.3.7-5.2 1.5-4.8 2-5 1.9-8.7-1.2-2.9-2.4-3.1-3-2.6-6.5.4-2.6.3-3.7-.4-3.3-.5.3-1 2.2-1 4.1 0 3.4-2.2 4.9-3.3 2.1-.7-1.7-2.7 1.1-2.7 3.9 0 1.1-.6 2.1-1.2 2.2-.7.1-2.9.3-4.8.5-1.9.1-4.1.6-4.8 1.1-1.7 1-1.5 6.6.3 8.6 1.1 1.2 1.3 2.4.7 3.9-.7 2.1-1.1 1.8-3.7-3.1-4.6-8.4-7.2-16.9-7.1-22.9.1-3-.2-6.6-.5-8.2-.5-1.6-.4-2.7.3-2.7.5 0 .8-.6.5-1.4-.3-.8.1-2 .9-2.6 1.1-1 1.4-.9 1.4.8 0 1.1.7 2.3 1.6 2.6 2.2.8 13.9.8 14.8-.1.4-.4 2.4-.6 4.4-.4 2.8.2 3.4 0 2.5-.9-1.1-1.2-7.9-2.1-15.3-2.3-3.7 0-5-1-5-4 0-1.5 1.1-1.7 9.4-1.7s12-.9 10.4-2.6c-1.1-1.1-16.3-2.3-17.2-1.4-1.5 1.5-3.6 1.2-3.6-.5 0-.8-.6-1.5-1.2-1.5-.9 0-1.3-1.7-1.2-5.2.1-3.6.5-5.2 1.3-5 .8.1.9-.2.5-1-1.6-2.6.6-17.8 2.6-17.8.5 0 1 1.7 1.2 3.7.3 3.6.5 3.8 3.8 3.8h3.5l-.3-6.6c-.4-7.3.8-9.5 5.6-10.4 1.5-.3 4.8-1.2 7.3-2 6.3-2 22.7-2.1 23.5-.1.3.8.1 4.9-.4 9.3-1.1 9.2-.1 11.5 4.3 9.5 2.3-1.1 2.5-1.7 2.5-7.9v-6.6l2.6 2.4c4.7 4.4 6.6 8.8 8.5 19.7 1 5.9 2.5 12.4 3.3 14.4 1.9 4.5 2.1 17.4.4 24.7-.6 2.8-.9 5.4-.5 5.7 1.2 1.2 3.6-1.7 4.2-4.9 1.8-9.5 3.1-13.4 4.8-15.4 2-2.2 2-2.3.1-4.4-1.6-1.8-1.9-3.8-2-14.3 0-9-.5-13.1-1.7-16-.9-2.1-1.7-4.7-1.7-5.8 0-1.1-.6-3.4-1.4-5.1-.8-1.8-1.6-4.1-1.8-5.2-.4-2.3-9.1-7.4-12.7-7.5h-2.4l.6-10.3c.7-15.6 4.6-23.7 11.2-23.7 3.7 0 5.5 1.3 8.4 6.2 4.3 7.2 5.2 15.1 6.1 52.8.4 19.5 1.1 36.5 1.5 37.8.6 1.9.3 2.4-1.4 2.9-1.4.3-2.1 1.3-2.1 2.8 0 4.9-4 15.3-6.9 17.7-1.7 1.5-3.1 3.9-3.5 6.3-1 4.9-4.5 11.8-9.1 18-3.9 5-3.6 6.5 1.1 6.5 2.2 0 3.4 2.3 3.4 6.6 0 1.8-.8 2.2-4.7 2.8-9.8 1.3-19.6 8.5-23.4 17.2-1.4 3.2-2.6 4.4-4.2 4.5-1.2.1-9.1.4-17.6.8-10.9.4-15.6 1-15.8 1.8-.6 1.7 6.2 7.8 10.6 9.6 12 5 14.8 5.8 21.3 6.7 6.1.7 8.6.6 15.3-1.1 17.3-4.3 28.6-9.2 34.6-14.9 3.6-3.4 4.7-4 6.1-3.1 3 1.9 5.3 1.2 8.8-2.4 2.6-2.6 4.2-3.5 6.8-3.5 5 0 7.3 1.6 6.6 4.5-.8 3.2 3.4 7.5 7.3 7.5 1.7 0 4.3 1.2 6.3 2.9l3.5 2.9-1.8 3.6c-2.1 4.6-2.1 6.5.1 9.2 1.8 2.4 7.2 5.4 9.5 5.4.8 0 1.9-1 2.5-2.3.7-1.2 2.1-3.3 3.2-4.8 1.8-2.1 1.9-3 1-5.3-.7-2-.7-4 .1-6.9 1.4-5.4 3.5-7.7 7-7.7 3.2 0 5.9-2.3 5.9-5.1 0-3.8-3.7-9.4-7.8-11.7-3.8-2.1-4-2.5-4.5-8-.9-11.3-3.2-17.6-6.7-18.7-1.1-.4-2.7-1.9-3.4-3.4-2-3.7-7.6-9.1-9.6-9.1-2.4 0-6-2.9-6-4.9 0-.9-1.4-3.6-3-5.8-3-4.1-3.1-4.2-1.5-8 4.2-10.1 15.9-15.3 26.8-12 2.6.8 4.7 1.1 4.7.7 0-.4-2.3-1.3-5.1-2s-5.3-1.9-5.6-2.7c-.7-1.7 1.3-4 2.4-2.8.5.4.2 1-.5 1.2-1.3.5-.7 2.3.9 2.3.6 0 .7-.5.4-1-.3-.6-.2-1 .4-1 1.3 0 2.3 1.7 1.4 2.3-.5.2-.3.2.4.1.7-.2 1.5.1 1.8.6.4.6 1.2 1 1.8 1 2.1 0-7-7.5-9.2-7.7-1.3-.1-1.9.2-1.5.9.5.7.2.9-.9.5-4-1.5-8.5-1.8-9.2-.6-.6.9-.1 1.1 1.9.7 1.7-.3 2.4-.2 1.8.4-.5.5-2.6 1.1-4.8 1.4-3.1.3-3.5.2-1.9-.6 1.8-.9 1.7-1-.8-.6-1.7.2-3.1-.2-3.6-1.2-.6-1-1-1.1-1.5-.3-.4.6-1.7 1.1-2.9 1.2-2 .1-2 .2.3.9 1.8.6 2 .8.7.9-1 .1-1.5.6-1.2 1.1.4.6 1.2.7 1.8.3.7-.3.3.3-.7 1.5-2.3 2.6-3.5 2.8-3.2.5.2-1-.4-2.4-1.1-3.2-1.3-1.2-1.6-1.2-2.4 0-.5.8-.9 1.9-.9 2.6 0 .6-.4 1.5-1 1.8-.5.3-.7 0-.4-.8.4-1.1-.1-1.3-2-1-1.3.3-2.7 1.2-3 2-.5 1.1-.1 1.3 1.5.8 1.4-.5 1.9-.3 1.5.3-.3.6 0 1.3.6 1.6 2 .9-6.1-.4-8.8-1.5l-2.5-.9 2-3.8c3-6 5.5-7.1 15.2-7 8.2.1 8.6 0 15.4-4 3.8-2.3 7.4-4.2 7.9-4.2s2.6 1.6 4.7 3.5c2.6 2.4 4.9 3.5 6.9 3.5 5.1 0 7.4 3.7 7.3 11.7l-.1 6.8.9-6.4c.8-5.4.7-6.7-.9-9.4-1-1.8-2.5-3.3-3.3-3.4-7.2-.9-8.7-1.5-10-3.9-2.6-5-5.3-4.9-13.6.1l-7.5 4.6-9-.3-9-.2-3.3 3.5c-1.8 2-3.4 4.2-3.7 5-2.5 7-3.5-20.9-1.9-52.3.6-13.4.7-22.8 0-27.4-1.1-7.9-5.2-16.9-8.9-19.6-3.2-2.4-8.7-3-12.5-1.6zm-63.3 10c2.7 3.6 5.1 13.5 5.6 23l.4 8.6-5.8.8c-4.9.6-6.4 1.2-9.1 4.1-2.1 2.1-3.3 4.5-3.3 6.1 0 1.5-.9 4.3-1.9 6.2-1.1 1.9-2.8 5-3.7 6.7-1 1.8-2.2 3.3-2.7 3.3-1.2 0 0-33.9 1.4-42.5 1.3-7.7 5.7-17.4 8.3-18.6 3.3-1.4 8.9-.2 10.8 2.3zm128.4 89.3c1.6 1.3 1.7 1.6.4 2.5-.8.5-1.9 1-2.5 1-.5 0-.3-.5.5-1 1.1-.7 1.2-1.2.3-2.1-.8-.8-1.7-.7-3.7.6-1.4 1-2.6 1.3-2.6.9 0-.8 3.3-2.9 5.1-3.3.3 0 1.4.6 2.5 1.4zm-12 2.1c1.6 1.3 1.6 1.5.2 1-1-.3-1.8-.1-1.8.4 0 .6.7 1 1.5 1s1.5.5 1.5 1.1c0 .5-.5.7-1.1.3-.6-.3-1.6 0-2.1.7-.8 1.1-.9 1-.4-.4.3-.9.2-1.7-.2-1.7s-.8-.9-.9-2c-.2-2.4.7-2.5 3.3-.4zm-12.9.9c0 .8-.4 1.5-.9 1.5-.4 0-.8-.7-.8-1.5s.4-1.5.8-1.5c.5 0 .9.7.9 1.5zm8.7 2.1c.3.8.2 1.2-.4.9-.6-.3-1-1-1-1.6 0-1.4.7-1.1 1.4.7zm-8.7 1c-.3.3-1.2.4-1.9.1-.8-.3-.5-.6.6-.6 1.1-.1 1.7.2 1.3.5zm5.7 2.8c-.3.8-.1 2.3.5 3.3 1 1.7 1 1.7 1.2-.2.1-1.1.1-2.4 0-2.8-.1-.5.3-.6.8-.3 1.3.8-.5 6-2.6 7.8-1.4 1.1-1.5 1.1-.5-.8.6-1.1.7-2.6.2-3.3-.6-1-1-.8-1.5.8-.4 1.3-.9 2-1.2 1.8-.2-.3 0-1.5.7-2.6.6-1.2.7-2.1.1-2.1-.5 0-1.2.6-1.4 1.2-.4 1-.6 1-.6.1-.1-.6.9-1.9 2.1-2.7 2.7-2 2.9-2 2.2-.2zm-110.3 23.3c.6 2.1 2.7 6.7 4.5 10.2 3.2 6 4.4 11.1 2.6 11.1-1.1 0-7.2-9.7-9.5-15.1-1.3-3-1.7-5.6-1.3-7.3.9-3.7 2.2-3.2 3.7 1.1zm38.2 5.9c1.2.1 3.2.3 4.5.3 3.3.1 2.7 1.4-1.5 3.3-2.6 1.1-3.1 1.7-1.8 1.7 1.1 0 3.9-.8 6.3-1.9 2.3-1 4.2-1.8 4.3-1.7.7 1.4.6 8.7-.1 8.7-.6 0-1 .7-1 1.5 0 4.6-5.2 9.3-10.9 9.8-1.1.1-2.1.8-2.1 1.7 0 1.1-.2 1.2-.8.2-.7-1-1.5-.7-3.7 1l-2.8 2.2.5-2.2c.4-1.2.2-2.2-.3-2.2s-.9.5-.9 1.2c0 .6-1.2 0-2.7-1.4-1.6-1.4-3.4-2.3-4-2.1-1.5.5-4.3-2-4.3-3.9 0-.7-1.1-2.6-2.5-4.2-1.9-2.2-2.5-3.9-2.3-7.3.1-4.8.7-5.1 5.2-2.4 4.2 2.5 8.9 3.6 8.3 1.9-.2-.7-1.1-1.2-2.1-1-1 .2-1.6-.4-1.6-1.7 0-1.6.6-1.9 3.5-1.7 2.8.3 3.8-.2 5.1-2.2l1.7-2.6 1.9 2.4c1 1.3 2.9 2.5 4.1 2.6zM117.8 209c-.2.8-3.3 3-7.1 4.8-6.7 3.2-7.9 4.6-9.1 10.4-.5 2-1.7 3-5.2 4.4-2.5.9-5.6 2.5-6.9 3.5-5.2 4.1-5.6-4-.5-9.1 2.4-2.4 8.4-3.8 9.4-2.1.5.7.1.9-.9.5-1.1-.5-1.4-.2-.9 1 .3.9 1 1.6 1.4 1.6 1.2 0 2.1-3 1.3-4.2-.4-.7-.1-.8.6-.4.8.5 1.1.3 1-.5-.1-.8 0-2.1.4-2.9.3-.8 1-3.1 1.6-5 .6-1.9 2.1-4.1 3.3-4.9 2.1-1.3 2.2-1.3.9.2-1.1 1.5-1.1 1.7.1 1.7.8 0 2.6-1.4 3.9-3.1l2.3-3.1 2.3 2.9c1.3 1.5 2.2 3.5 2.1 4.3zm-16.8-2.7c0 .7-.4.6-1.1-.3-.8-1.1-.9-.6-.5 2 .5 3.1.5 3.2-.4 1.1-1.2-2.8-.6-5.6 1-4.6.5.3 1 1.2 1 1.8zm-3.4 3.2c.8 2 1.2 4 .9 4.5-.7 1.1-3.5.2-3.5-1.2 0-.6.6-.8 1.4-.5.9.4 1.2 0 .9-1.3-.7-2.6-3.3-1.3-3.3 1.6 0 1.3.5 2.4 1 2.4.6 0 1 .7 1 1.5s-.9 1.5-1.9 1.5c-1.1 0-2.3.4-2.6 1-.3.5-2.1 1-3.8 1-2.1 0-5.7 1.7-10.6 4.9-7.6 5.1-15.3 7.3-17.4 5.2-1.6-1.6-8.3-1.3-9.7.4-.7.8-2.9 2-5 2.6-3.7 1.1-3.9 1-7.9-3-2.2-2.2-4.8-4.1-5.7-4.1-.9 0-1.4-.6-1.1-1.3.2-.6 1.5-1.1 2.8-.9 5.3.7 7.2 1.1 7.8 1.8.3.4-.2.4-1.2.1-1.2-.4-1.6-.3-1.1.4.9 1.4 4.7.4 11.6-3.1 3.4-1.8 6.4-2.7 7.4-2.3 1.2.4 1.5.3 1-.5-1-1.6.5-1.5 2.7.2 1.5 1.2 1.6 1.4.2 2-.8.3-2.6.1-4-.4s-2.5-.6-2.5-.1 1.3 1.2 2.9 1.6c2.2.5 4.1-.1 7.7-2.3 2.7-1.6 6.1-3.2 7.7-3.6 1.5-.3 2.7-1.1 2.7-1.6s1.2-.2 2.8.6c2.4 1.2 2.8 1.2 3.9-.2.6-.9 1-2.5.8-3.5-.2-1.1 0-1.7.5-1.4.5.3 1.3-.3 1.9-1.2.6-1 1.1-1.3 1.1-.6 0 .6-.7 1.9-1.6 2.7-1.2 1.2-1.2 1.6-.2 1.7 1 0 1 .2.1.6-.7.2-1.3.9-1.3 1.4 0 .6.6.7 1.3.2.6-.4 2.1-.6 3.2-.5 2.5.3 5.6-1.7 3.8-2.5-.7-.2-1.3-.9-1.3-1.4 0-.6.5-.7 1-.4.6.3 1-.5 1-1.9 0-2 .8-3 2.8-3.5.2-.1 1 1.5 1.8 3.4zM76 208c0 .5-.4 1-1 1-.5 0-1-.5-1-1 0-.6.5-1 1-1 .6 0 1 .4 1 1zm149.5 0c.5.8-5.5.3-6.3-.4-.2-.3 1-.4 2.7-.4 1.8.1 3.4.4 3.6.8zm.9 2.9c.7.6 1.7.7 2.1.3.5-.4.5-.1 0 .7-.5.9-.3 1.2.6.9.8-.3 1.3-1.1 1.2-1.7-.7-2.9 5.2.9 6 3.9.4 1.6-.3 2.6-3.1 4.4-2 1.3-4.5 3.2-5.5 4.4-1.6 1.7-2.3 1.8-5.7 1-5.3-1.4-8.4-.4-12.4 3.8-2.2 2.3-3.8 3.3-4.9 2.8-2.2-.8-2.1-1.1.4-6.4 1.4-2.9 2-5.5 1.6-8-.5-3.9 1-6.9 3.1-6.3 1.9.7 1.4 6.4-.8 10-1.5 2.5-1.6 3.3-.6 3.3.7 0 1.9-1.4 2.6-3 1.7-4 2.8-4.6 4.5-2.4 1.1 1.6 1.8 1.7 4.3.8 2.5-1 3.3-.9 4.6.4 1.9 1.9 3.4.8 1.7-1.2-1.3-1.5-.2-2.8 2.7-3.2 1.7-.3 4.4-2.5 3.8-3.2-.3-.2-1.2.3-2.1 1.2-1.5 1.4-1.8 1.4-3.7-.3-2-1.9-5.4-1.8-4.2.1.4.7.9.7 1.3 0 .4-.6 1.1-.5 1.8.3 2.1 2.2-.9 2.5-3.6.4-1.3-1.1-1.8-1.9-1.2-1.9.6 0 1.1-.5 1.1-1.1 0-.5-.4-.7-1-.4-.5.3-1 .1-1-.5 0-1.2 4.6-.6 6.4.9zm-138.7 3.3c-.3.8-.6.5-.6-.6-.1-1.1.2-1.7.5-1.3.3.3.4 1.2.1 1.9zM65 215.9c0 .6-.4 1.3-1 1.6-.5.3-1 1.1-1 1.8 0 .8.3.8 1.2-.1.7-.7 1.6-1.2 2.1-1.2s.1.7-.8 1.6c-1.5 1.6-1.8 1.5-3.8-.5-1.8-1.8-1.9-2.1-.4-1.5 1 .3 1.7.3 1.6-.2-.3-1.6.1-2.4 1.1-2.4.6 0 1 .4 1 .9zm9.3.4c-.3.5-1.4.7-2.4.4-1-.3-2 0-2.2.7-.2.6-.8.7-1.3.3-.5-.4-.3-1.1.4-1.6 1.7-1 6.2-.9 5.5.2zm144.7.8c0 .5-.7.9-1.5.9-.9 0-1.2-.6-.9-1.5.6-1.5 2.4-1.1 2.4.6zm25 26.1c0 2.1.5 3.8 1.1 3.8.5 0 .8.4.5.9-.3.5.1 1.1.8 1.4.8.3 1.7.1 1.9-.6.3-.9 1.2-.7 3.3.5 1.6.9 3 2 3.1 2.5.2.4-1.2 2.5-3 4.6-3 3.5-3.4 3.7-6.2 2.6-1.7-.6-3.8-2.2-4.8-3.5-1.6-2.2-1.6-2.6-.2-5.3 2.3-4.6 1.9-7.6-1.7-10.6-2.4-2-2.8-2.9-1.8-3.5.8-.5 2.4 0 4.2 1.3 2.2 1.6 2.8 2.9 2.8 5.9zm11-4.8c0 .2-.8 1-1.7 1.7-1.6 1.3-1.7 1.2-.4-.4 1.3-1.6 2.1-2.1 2.1-1.3zm-1.5 4.8c.4-.4.3.2-.2 1.3-.6 1.1-.8 2.7-.5 3.5.4 1-.1.8-1.4-.4-1-1.1-1.9-3.2-2-4.8-.2-2.8-.1-2.8 1.6-.8.9 1.1 2.1 1.6 2.5 1.2zm-7.8 1c-.3.7-.5.2-.5-1.2s.2-1.9.5-1.3c.2.7.2 1.9 0 2.5z"/><path d="M148 186c0 .6.7 1 1.5 1s1.5-.2 1.5-.4-.7-.6-1.5-1c-.8-.3-1.5-.1-1.5.4zM133.7 192.6c-1 1 2.4 3.3 5.2 3.4 1.5 0 2.1.5 1.8 1.4-.3.8.1 1.3 1.1 1.2.9 0 1.6.5 1.4 1.2-.2.9.8.6 2.5-.8 1.7-1.3 3.5-1.9 4.9-1.6 1.3.4 3.5.1 5.1-.5 4.2-1.6 1.3-2.7-8.7-3.2-4.7-.3-9.4-.8-10.5-1.2-1.1-.3-2.4-.3-2.8.1zM160.5 194c.3.5.8 1 1.1 1 .2 0 .4-.5.4-1 0-.6-.5-1-1.1-1-.5 0-.7.4-.4 1zM250.5 245c.3.5.8 1 1.1 1 .2 0 .4-.5.4-1 0-.6-.5-1-1.1-1-.5 0-.7.4-.4 1zM50.3 131.5c-1.8.8-3.3 1.8-3.3 2.4 0 1.8-5.2 7.1-6.9 7.1-2 0-9.1 7-9.1 8.9 0 .7.9 2.4 2 3.8 1.5 1.9 1.8 3.4 1.4 6.8-.4 2.5-.2 4.5.4 4.9.6.3 3.1-.8 5.6-2.5 3.4-2.4 5.9-3.3 10-3.7 3.1-.2 5.4-.8 5.1-1.1-.2-.4.5-2.2 1.6-3.9 2.4-4 2.4-4.1-.3-5.2-1.5-.6-1.8-.9-.7-.9 1.2-.1 1.5-.8 1.1-2.9-.4-2.2-.2-2.5.9-1.5 2.1 2.1 3.4 1.5 1.4-.7-1-1.1-1.4-2-.8-2 .5 0 1.8.8 2.7 1.9 1.5 1.7 1.6 1.9.1 2.5-.9.3-2.1.4-2.6 0-.5-.3-.9 0-.9.5 0 .6.6 1.1 1.3 1.1.9 0 .8.3-.2.9-.7.5-.9 1.1-.4 1.4.6.4 2.1-.5 3.4-1.9 3.6-3.9 11-7.2 18.1-8.2l6.3-.8-5-3.2c-6.3-4-8.5-4-12.9-.1-2.9 2.5-3.8 2.8-5.6 1.9-1.1-.6-2-1.7-2-2.5 0-1.7-3.8-4.5-6-4.5-.8.1-3 .7-4.7 1.5zm8.9 3.8c4.8 4.9 6.4 5.2 9.5 1.7 3.1-3.5 5.9-3.8 11-1l3.8 2H79c-3 .1-5.8.9-8.5 2.5-4.9 3-7.2 3.1-10.1.4l-2.2-2.1-.7 2.1c-.3 1.2-1.3 2.1-2.1 2.1s-1.4.4-1.4 1c0 .5-.7 1-1.5 1s-1.5-.5-1.5-1c0-.6-.7-1-1.5-1s-1.5.4-1.5.9c0 1.2 2.5 2.1 5.8 2.1 2.3.1 2.4.2 1 1.1-1.2.7-2.4.6-3.8-.1-2.9-1.6-4.2-.3-3.5 3.3.5 2.4.4 2.8-.4 1.7-.8-1-1.3-1.2-1.8-.4-.5.6-1.9 1.7-3.3 2.4-2.3 1.2-2.3 1.3-.5 2 2.9 1 6.5.6 7.5-.9.6-1 .9-1 1.5-.1 1.1 1.8-1.3 2.9-5.7 2.5-3.5-.3-3.8-.2-2.6 1.2 1.1 1.4 1 1.5-1.1.8-1.4-.4-2.1-.3-1.8.2.4.5-.1 2-1 3.3-1.6 2.2-1.7 2.2-2.3.4-.4-1-.3-2.9.3-4.1.7-1.7.4-2.8-1.8-5.7l-2.8-3.7 2.9-3c1.6-1.7 4.7-3.8 7-4.8 2.7-1.2 4.6-2.9 5.5-4.9 2.6-5.9 7.4-6.6 12.1-1.9zm-6.6 17.6c2.8-.5 3.4.1 2.2 2.1-1.2 1.9-1.3 1.9-3.5-.5-2.5-2.7-3.1-4.4-.9-2.6.8.6 1.8 1.1 2.2 1z"/><path d="M42.7 150c-.6 2.4-.1 2.5 1.9.6 1.8-1.8 1.8-2.6 0-2.6-.7 0-1.6.9-1.9 2zM159 133.2l-2.5 1 2.5 1c1.4.5 6 .8 10.2.6 4.2-.2 7.5-.1 7.2.1-.4.5 2.7 3 3.9 3.1.4 0 .7-.7.7-1.5s-1.8-2.4-4-3.5c-4.3-2.2-13.6-2.6-18-.8zM159.8 144.1l-2.3 2 2.7-.5c1.8-.4 3-.1 3.6.9.8 1.6 3.6 1.6 6.2 0 .8-.5 2.4-.9 3.4-1 2.4 0 3.2-2.1 1.1-2.8-.8-.4-1.5-.2-1.5.2 0 .5-.8.8-1.7.6-7.1-1.4-9.3-1.3-11.5.6zM213 144c-.8.5-1 1-.5 1 .6 0 1.7-.5 2.5-1s1.1-1 .5-1c-.5 0-1.7.5-2.5 1zM143.2 149c0 1.4.2 1.9.5 1.2.2-.6.2-1.8 0-2.5-.3-.6-.5-.1-.5 1.3zM269 164.2c-1.9.5-3.9 1.6-4.3 2.4-.4.8-1.7 1.4-2.7 1.4-1.1 0-2 .3-2 .8 0 1 2.8 5.2 5.6 8.2 2.2 2.4 2.3 2.9 1.3 9.8-.9 6.7-.9 7.5.8 8.8 1 .7 2.4 1.4 3.1 1.4.6 0 1.2.5 1.2 1.1 0 1.4 6.2.1 7.2-1.5.4-.6.8-1.9.8-2.9s1.1-3.3 2.5-5.1c3-4 3.1-5.5.4-9-1.4-1.8-1.9-3.6-1.6-5.4 1-5.1-3.3-11.4-7.5-11.1-.7 0-2.9.5-4.8 1.1zm9.5 3.4c1.8 2.8 1.4 8-.9 12.3l-1.3 2.4v-2.7c0-3.1-.4-3.7-2.9-4-2.3-.3-2.7-3.3-.6-4.5 1.3-.8 1.4-1.3.4-3.5-1.1-2.4-1-2.6 1.2-2.6 1.4 0 3 1 4.1 2.6zm-8.8.4c-.1 2.1-3.1 2.8-4.2 1-.4-.6.1-.7 1.1-.3 1.3.5 1.5.3.9-.7-.5-.9-.4-1.1.3-.6.7.4 1.2.2 1.2-.3 0-.6.2-1.1.4-1.1.3 0 .4.9.3 2zm2.8 11.7c-.2 1-.4 2-.5 2.3-.1.3-.2.9-.1 1.3.1.5-.4.5-1 .2-.7-.5-.7-1.1-.1-1.7.6-.6.8-1.7.5-2.4-.3-.8-.1-1.4.5-1.4s.9.8.7 1.7zm9.3 1.5c1.8 1.8 1.5 4.3-.8 6.3-1.8 1.6-2 1.6-2.6.1-.3-.9-1.2-1.6-2-1.6s-1.1-.6-.7-1.6c.4-1.1.8-1.2 1.3-.4.5.8 1 .2 1.4-1.4.7-2.9 1.6-3.2 3.4-1.4zm-10.4 5.8c-1 .4-2.1.6-2.4.3-.8-.7 2.4-2.2 3.4-1.6.5.4.1 1-1 1.3zm0 2.4c-1 .8-2.1 1.2-2.4 1-.5-.6 2.1-2.4 3.4-2.4.6 0 .1.6-1 1.4zm6.6 3.1c0 1.4-.8 2.9-1.9 3.5-2.6 1.4-3.1 1.3-3.1-.6 0-1.1-.5-1.4-1.7-1-1 .4-.5-.5 1.1-1.9 3.7-3.2 5.6-3.2 5.6 0z"/><path d="M274.8 174.8c3.2 3.3 4.1 3.2 2.2-.3-.7-1.4-2.1-2.5-3.1-2.5-1.5 0-1.3.5.9 2.8zM70 166.4c0 .2.8 1 1.8 1.7 1.5 1.3 1.6 1.2.3-.4s-2.1-2.1-2.1-1.3zM168 258.5c0 2.1.5 2.5 3 2.5s3-.4 3-2.5-.5-2.5-3-2.5-3 .4-3 2.5zM96 270v13h3c2.9 0 3-.1 3-5 0-4.7.2-5 2.5-5 2 0 3 1 5 5 2.2 4.4 2.9 5 5.6 5 2.7 0 3-.3 2.3-2.3-1.1-3.6-3.1-7.2-4.9-8.7-1.4-1.2-1.4-1.5.5-3.2 1.3-1.2 2-3.1 2-5.4 0-3.1-.4-3.7-3.5-5-1.9-.7-6.2-1.4-9.5-1.4h-6v13zm12.5-5c0 2.1-.5 2.6-3.2 2.8-3.1.3-3.3.1-3.3-2.8s.2-3.1 3.3-2.8c2.7.2 3.2.7 3.2 2.8zM127.3 264.4c-3.7 1.7-5.3 4.3-5.3 8.8 0 6.8 6 10.6 14.6 9.3 3.4-.5 4.4-1 4.4-2.5 0-1.7-.6-1.8-5-1.3-3.3.4-5.5.2-6.5-.7-2.8-2.3-1.5-3 5.5-3h7v-2.9c0-6.6-7.9-10.7-14.7-7.7zm8.5 4.8c.3 1.5-.4 1.8-3.7 1.8-4.3 0-5-.7-2.9-2.8 1.8-1.8 6.2-1.1 6.6 1zM151.3 264.5c-8.6 3.7-6.6 16.2 2.8 18 4.5.8 8.9-.9 8.9-3.4 0-1.7-.5-1.8-4-1.4-4.8.7-7-.8-7-4.7 0-3.9 2.2-5.4 7-4.7 3.5.4 4 .3 4-1.4 0-1.2-1-2.3-2.6-2.9-3.3-1.3-5.2-1.2-9.1.5zM168 273v10h6v-20h-6v10zM184.3 264.5c-3.7 1.6-5.3 4.2-5.3 8.7 0 6.9 6.7 11.1 14.1 8.9 8.6-2.6 9.1-15.1.8-18-4.1-1.4-5.7-1.3-9.6.4zm8.9 6c1.6 3.5-.3 7.5-3.5 7.5-3 0-4.7-1.8-4.7-5 0-5.2 6.1-7.1 8.2-2.5z"/></svg>