<?xml version="1.0" standalone="no"?>
<!DOCTYPE svg PUBLIC "-//W3C//DTD SVG 20010904//EN"
 "http://www.w3.org/TR/2001/REC-SVG-20010904/DTD/svg10.dtd">
<svg version="1.0" xmlns="http://www.w3.org/2000/svg"
 width="300.000000pt" height="300.000000pt" viewBox="0 0 300.000000 300.000000"
 preserveAspectRatio="xMidYMid meet">
<metadata>
Created by potrace 1.14, written by Peter Selinger 2001-2017
</metadata>
<g transform="translate(0.000000,300.000000) scale(0.100000,-0.100000)"
fill="#000000" stroke="none">
<path d="M1130 2950 c-19 -4 -26 -13 -28 -37 -3 -28 -1 -30 23 -25 29 5 38 20
33 49 -2 15 -9 18 -28 13z"/>
<path d="M1450 2898 c-41 -56 -41 -108 -1 -149 33 -33 50 -35 91 -14 l30 16 0
-56 c0 -52 1 -55 25 -55 l25 0 0 150 0 150 -25 0 c-20 0 -25 -5 -25 -27 l0
-27 -28 27 c-38 37 -57 34 -92 -15z m112 -53 c16 -35 -3 -75 -35 -75 -30 0
-47 18 -47 50 0 52 61 71 82 25z"/>
<path d="M1300 2922 c0 -4 -16 -14 -36 -21 -21 -8 -39 -22 -45 -38 -21 -55 -5
-77 57 -78 26 0 49 -6 51 -12 6 -17 -32 -34 -78 -35 -31 0 -39 -4 -39 -19 0
-15 7 -18 38 -18 39 1 98 17 120 32 17 13 15 62 -4 78 -8 7 -34 13 -56 13 -24
1 -43 6 -45 13 -6 18 45 35 79 28 26 -6 28 -4 28 24 0 29 -20 46 -20 19 -1 -8
-6 -6 -14 5 -14 17 -36 23 -36 9z"/>
<path d="M1690 2845 c0 -85 0 -86 36 -122 32 -32 38 -34 60 -24 33 15 44 14
44 -3 0 -7 11 -16 25 -19 l26 -4 -3 106 c-3 101 -4 106 -25 109 -22 3 -23 0
-23 -55 0 -69 -15 -96 -51 -91 -23 3 -24 6 -27 96 l-3 92 -29 0 -30 0 0 -85z"/>
<path d="M1130 2870 c-25 -6 -25 -7 -27 -120 -1 -63 1 -109 3 -102 3 6 14 12
25 12 27 0 30 13 27 121 l-3 95 -25 -6z"/>
<path d="M1020 2829 c-40 -56 -39 -56 -40 -31 0 25 0 25 -34 12 -26 -9 -26
-11 -26 -119 l0 -110 30 10 c29 11 30 13 30 71 0 72 23 126 56 134 17 4 24 13
24 30 0 30 -21 31 -40 3z"/>
<path d="M1965 2816 c-18 -18 -25 -36 -25 -62 0 -35 26 -94 43 -94 4 0 19 -12
32 -26 16 -17 36 -27 55 -28 16 -1 30 -4 30 -8 0 -5 7 -8 15 -8 9 0 15 9 15
25 0 16 -6 25 -15 25 -38 0 -95 26 -104 48 -14 30 -14 37 2 24 6 -6 29 -13 50
-17 20 -4 37 -11 37 -16 0 -5 9 -9 20 -9 25 0 27 42 5 80 -8 14 -17 32 -20 40
-6 16 -41 34 -88 44 -21 5 -33 1 -52 -18z m113 -65 c3 -19 0 -21 -25 -15 -39
9 -63 32 -44 43 22 14 66 -3 69 -28z"/>
<path d="M2190 2660 c0 -60 3 -110 8 -110 4 0 17 -3 30 -6 21 -6 22 -4 22 50
0 42 5 61 20 76 11 11 22 15 25 10 12 -20 35 -10 35 15 0 14 -3 25 -7 26 -5 0
-16 2 -25 4 -10 2 -20 -1 -24 -6 -10 -17 -24 -9 -24 15 0 21 -20 35 -52 36 -5
0 -8 -49 -8 -110z"/>
<path d="M2370 2736 c0 -14 7 -26 18 -30 9 -3 23 -9 30 -12 19 -9 15 37 -5 52
-27 20 -43 17 -43 -10z"/>
<path d="M815 2740 c-11 -4 -26 -5 -32 -3 -7 3 -13 0 -13 -6 0 -6 -6 -11 -13
-11 -7 0 -25 -14 -40 -31 -27 -31 -35 -59 -17 -59 6 0 10 4 10 9 0 13 70 52
81 46 14 -9 11 -25 -6 -25 -8 0 -15 -4 -15 -10 0 -5 -6 -10 -14 -10 -7 0 -30
-18 -50 -41 -29 -32 -37 -47 -34 -72 3 -30 5 -32 41 -30 27 2 44 10 62 30 13
16 25 22 25 16 0 -15 30 -18 30 -3 0 6 7 10 15 10 12 0 15 17 15 89 0 94 -9
114 -45 101z m-15 -132 c0 -7 -11 -26 -24 -43 -19 -23 -27 -27 -36 -19 -15 15
-3 54 16 54 8 0 14 5 14 10 0 6 7 10 15 10 8 0 15 -6 15 -12z"/>
<path d="M566 2664 c-31 -27 -42 -48 -56 -102 -10 -37 -24 -82 -30 -100 l-12
-33 -29 46 c-26 40 -49 58 -49 37 0 -4 -13 -22 -30 -40 l-30 -33 0 -135 0
-135 25 27 c23 25 25 34 25 123 0 53 5 103 10 111 8 13 10 13 10 -2 0 -9 12
-31 26 -48 25 -29 28 -30 45 -14 10 9 25 41 34 72 10 32 23 73 31 92 12 34 13
32 13 -52 1 -93 10 -108 45 -69 14 15 16 38 14 154 l-3 136 -39 -35z"/>
<path d="M2370 2581 c0 -94 2 -109 18 -115 9 -3 23 -9 30 -12 9 -4 12 19 12
102 0 90 -3 109 -17 120 -38 29 -43 19 -43 -95z"/>
<path d="M2500 2569 c0 -15 5 -19 15 -15 8 3 15 1 15 -4 0 -6 6 -10 13 -10 19
-1 54 -34 62 -60 7 -23 7 -23 -21 3 -19 18 -36 25 -56 23 -16 -2 -28 1 -28 8
0 20 -20 -18 -20 -40 0 -29 23 -74 38 -74 6 0 12 -6 12 -14 0 -12 32 -27 63
-30 4 -1 13 -12 20 -25 7 -13 22 -31 35 -39 l22 -14 0 90 c0 67 -4 93 -15 102
-8 7 -15 18 -15 26 0 7 -9 18 -20 24 -11 6 -20 17 -20 25 0 8 -7 15 -15 15 -8
0 -15 5 -15 11 0 6 -9 9 -20 6 -11 -3 -20 -1 -20 4 0 5 -7 9 -15 9 -9 0 -15
-9 -15 -21z m110 -169 c0 -9 -7 -17 -15 -17 -22 0 -58 44 -51 62 5 14 10 13
36 -6 16 -13 30 -30 30 -39z"/>
<path d="M1795 2568 c-46 -17 -84 -46 -100 -78 -16 -32 -35 -173 -35 -268 0
-73 -11 -83 -66 -57 -67 32 -92 34 -167 19 -39 -8 -76 -19 -82 -23 -10 -9 -75
-25 -75 -19 -15 229 -22 304 -34 331 -31 76 -134 107 -216 65 -36 -18 -51 -35
-75 -82 l-30 -60 0 -415 0 -416 -37 -95 c-20 -52 -35 -96 -32 -99 2 -2 18 8
34 24 46 44 62 109 67 278 3 81 9 147 12 147 6 0 24 -80 38 -169 4 -23 0 -46
-12 -68 -17 -31 -17 -36 -2 -93 23 -83 22 -92 -20 -149 l-38 -51 -95 2 c-101
1 -115 -2 -225 -59 -115 -59 -173 -100 -251 -178 -59 -59 -83 -93 -114 -157
-50 -109 -57 -138 -31 -138 11 0 35 13 53 28 92 78 196 152 213 152 16 0 -68
-81 -113 -107 -40 -24 -82 -66 -82 -84 0 -5 15 -16 32 -25 18 -9 47 -33 65
-52 31 -33 32 -34 70 -22 21 7 49 21 62 31 29 23 54 24 84 4 38 -25 118 1 221
72 48 33 70 37 47 10 -6 -8 -14 -34 -17 -58 -8 -58 10 -77 47 -51 13 9 46 26
74 37 43 17 52 26 63 60 18 54 27 63 102 99 72 35 79 48 59 108 -21 65 2 67
50 5 66 -87 109 -111 201 -115 100 -5 147 9 193 56 31 31 41 53 53 108 9 38
16 83 16 99 0 17 7 44 15 61 20 38 11 94 -18 120 -20 18 -20 18 -14 -8 7 -26
5 -27 -27 -22 -54 9 -62 11 -81 19 -17 7 -17 8 0 21 16 12 16 13 2 14 -9 0
-33 -7 -52 -15 -48 -20 -50 -19 -87 12 -29 24 -31 30 -26 65 4 26 3 37 -4 33
-5 -3 -10 -22 -10 -41 0 -34 -22 -49 -33 -21 -7 17 -27 -11 -27 -39 0 -11 -6
-21 -12 -22 -7 -1 -29 -3 -48 -5 -19 -1 -41 -6 -48 -11 -17 -10 -15 -66 3 -86
11 -12 13 -24 7 -39 -7 -21 -11 -18 -37 31 -46 84 -72 169 -71 229 1 30 -2 66
-5 82 -5 16 -4 27 3 27 5 0 8 6 5 14 -3 8 1 20 9 26 11 10 14 9 14 -8 0 -11 7
-23 16 -26 22 -8 139 -8 148 1 4 4 24 6 44 4 28 -2 34 0 25 9 -11 12 -79 21
-153 23 -37 0 -50 10 -50 40 0 15 11 17 94 17 83 0 120 9 104 26 -11 11 -163
23 -172 14 -15 -15 -36 -12 -36 5 0 8 -6 15 -12 15 -9 0 -13 17 -12 52 1 36 5
52 13 50 8 -1 9 2 5 10 -16 26 6 178 26 178 5 0 10 -17 12 -37 3 -36 5 -38 38
-38 l35 0 -3 66 c-4 73 8 95 56 104 15 3 48 12 73 20 63 20 227 21 235 1 3 -8
1 -49 -4 -93 -11 -92 -1 -115 43 -95 23 11 25 17 25 79 l0 66 26 -24 c47 -44
66 -88 85 -197 10 -59 25 -124 33 -144 19 -45 21 -174 4 -247 -6 -28 -9 -54
-5 -57 12 -12 36 17 42 49 18 95 31 134 48 154 20 22 20 23 1 44 -16 18 -19
38 -20 143 0 90 -5 131 -17 160 -9 21 -17 47 -17 58 0 11 -6 34 -14 51 -8 18
-16 41 -18 52 -4 23 -91 74 -127 75 l-24 0 6 103 c7 156 46 237 112 237 37 0
55 -13 84 -62 43 -72 52 -151 61 -528 4 -195 11 -365 15 -378 6 -19 3 -24 -14
-29 -14 -3 -21 -13 -21 -28 0 -49 -40 -153 -69 -177 -17 -15 -31 -39 -35 -63
-10 -49 -45 -118 -91 -180 -39 -50 -36 -65 11 -65 22 0 34 -23 34 -66 0 -18
-8 -22 -47 -28 -98 -13 -196 -85 -234 -172 -14 -32 -26 -44 -42 -45 -12 -1
-91 -4 -176 -8 -109 -4 -156 -10 -158 -18 -6 -17 62 -78 106 -96 120 -50 148
-58 213 -67 61 -7 86 -6 153 11 173 43 286 92 346 149 36 34 47 40 61 31 30
-19 53 -12 88 24 26 26 42 35 68 35 50 0 73 -16 66 -45 -8 -32 34 -75 73 -75
17 0 43 -12 63 -29 l35 -29 -18 -36 c-21 -46 -21 -65 1 -92 18 -24 72 -54 95
-54 8 0 19 10 25 23 7 12 21 33 32 48 18 21 19 30 10 53 -7 20 -7 40 1 69 14
54 35 77 70 77 32 0 59 23 59 51 0 38 -37 94 -78 117 -38 21 -40 25 -45 80 -9
113 -32 176 -67 187 -11 4 -27 19 -34 34 -20 37 -76 91 -96 91 -24 0 -60 29
-60 49 0 9 -14 36 -30 58 -30 41 -31 42 -15 80 42 101 159 153 268 120 26 -8
47 -11 47 -7 0 4 -23 13 -51 20 -28 7 -53 19 -56 27 -7 17 13 40 24 28 5 -4 2
-10 -5 -12 -13 -5 -7 -23 9 -23 6 0 7 5 4 10 -3 6 -2 10 4 10 13 0 23 -17 14
-23 -5 -2 -3 -2 4 -1 7 2 15 -1 18 -6 4 -6 12 -10 18 -10 21 0 -70 75 -92 77
-13 1 -19 -2 -15 -9 5 -7 2 -9 -9 -5 -40 15 -85 18 -92 6 -6 -9 -1 -11 19 -7
17 3 24 2 18 -4 -5 -5 -26 -11 -48 -14 -31 -3 -35 -2 -19 6 18 9 17 10 -8 6
-17 -2 -31 2 -36 12 -6 10 -10 11 -15 3 -4 -6 -17 -11 -29 -12 -20 -1 -20 -2
3 -9 18 -6 20 -8 7 -9 -10 -1 -15 -6 -12 -11 4 -6 12 -7 18 -3 7 3 3 -3 -7
-15 -23 -26 -35 -28 -32 -5 2 10 -4 24 -11 32 -13 12 -16 12 -24 0 -5 -8 -9
-19 -9 -26 0 -6 -4 -15 -10 -18 -5 -3 -7 0 -4 8 4 11 -1 13 -20 10 -13 -3 -27
-12 -30 -20 -5 -11 -1 -13 15 -8 14 5 19 3 15 -3 -3 -6 0 -13 6 -16 20 -9 -61
4 -88 15 l-25 9 20 38 c30 60 55 71 152 70 82 -1 86 0 154 40 38 23 74 42 79
42 5 0 26 -16 47 -35 26 -24 49 -35 69 -35 51 0 74 -37 73 -117 l-1 -68 9 64
c8 54 7 67 -9 94 -10 18 -25 33 -33 34 -72 9 -87 15 -100 39 -26 50 -53 49
-136 -1 l-75 -46 -90 3 -90 2 -33 -35 c-18 -20 -34 -42 -37 -50 -25 -70 -35
209 -19 523 6 134 7 228 0 274 -11 79 -52 169 -89 196 -32 24 -87 30 -125 16z
m-633 -100 c27 -36 51 -135 56 -230 l4 -86 -58 -8 c-49 -6 -64 -12 -91 -41
-21 -21 -33 -45 -33 -61 0 -15 -9 -43 -19 -62 -11 -19 -28 -50 -37 -67 -10
-18 -22 -33 -27 -33 -12 0 0 339 14 425 13 77 57 174 83 186 33 14 89 2 108
-23z m1284 -893 c16 -13 17 -16 4 -25 -8 -5 -19 -10 -25 -10 -5 0 -3 5 5 10
11 7 12 12 3 21 -8 8 -17 7 -37 -6 -14 -10 -26 -13 -26 -9 0 8 33 29 51 33 3
0 14 -6 25 -14z m-120 -21 c16 -13 16 -15 2 -10 -10 3 -18 1 -18 -4 0 -6 7
-10 15 -10 8 0 15 -5 15 -11 0 -5 -5 -7 -11 -3 -6 3 -16 0 -21 -7 -8 -11 -9
-10 -4 4 3 9 2 17 -2 17 -4 0 -8 9 -9 20 -2 24 7 25 33 4z m-129 -9 c0 -8 -4
-15 -9 -15 -4 0 -8 7 -8 15 0 8 4 15 8 15 5 0 9 -7 9 -15z m87 -21 c3 -8 2
-12 -4 -9 -6 3 -10 10 -10 16 0 14 7 11 14 -7z m-87 -10 c-3 -3 -12 -4 -19 -1
-8 3 -5 6 6 6 11 1 17 -2 13 -5z m57 -28 c-3 -8 -1 -23 5 -33 10 -17 10 -17
12 2 1 11 1 24 0 28 -1 5 3 6 8 3 13 -8 -5 -60 -26 -78 -14 -11 -15 -11 -5 8
6 11 7 26 2 33 -6 10 -10 8 -15 -8 -4 -13 -9 -20 -12 -18 -2 3 0 15 7 26 6 12
7 21 1 21 -5 0 -12 -6 -14 -12 -4 -10 -6 -10 -6 -1 -1 6 9 19 21 27 27 20 29
20 22 2z m-1103 -233 c6 -21 27 -67 45 -102 32 -60 44 -111 26 -111 -11 0 -72
97 -95 151 -13 30 -17 56 -13 73 9 37 22 32 37 -11z m382 -59 c12 -1 32 -3 45
-3 33 -1 27 -14 -15 -33 -26 -11 -31 -17 -18 -17 11 0 39 8 63 19 23 10 42 18
43 17 7 -14 6 -87 -1 -87 -6 0 -10 -7 -10 -15 0 -46 -52 -93 -109 -98 -11 -1
-21 -8 -21 -17 0 -11 -2 -12 -8 -2 -7 10 -15 7 -37 -10 l-28 -22 5 22 c4 12 2
22 -3 22 -5 0 -9 -5 -9 -12 0 -6 -12 0 -27 14 -16 14 -34 23 -40 21 -15 -5
-43 20 -43 39 0 7 -11 26 -25 42 -19 22 -25 39 -23 73 1 48 7 51 52 24 42 -25
89 -36 83 -19 -2 7 -11 12 -21 10 -10 -2 -16 4 -16 17 0 16 6 19 35 17 28 -3
38 2 51 22 l17 26 19 -24 c10 -13 29 -25 41 -26z m-355 -284 c-2 -8 -33 -30
-71 -48 -67 -32 -79 -46 -91 -104 -5 -20 -17 -30 -52 -44 -25 -9 -56 -25 -69
-35 -52 -41 -56 40 -5 91 24 24 84 38 94 21 5 -7 1 -9 -9 -5 -11 5 -14 2 -9
-10 3 -9 10 -16 14 -16 12 0 21 30 13 42 -4 7 -1 8 6 4 8 -5 11 -3 10 5 -1 8
0 21 4 29 3 8 10 31 16 50 6 19 21 41 33 49 21 13 22 13 9 -2 -11 -15 -11 -17
1 -17 8 0 26 14 39 31 l23 31 23 -29 c13 -15 22 -35 21 -43z m-168 27 c0 -7
-4 -6 -11 3 -8 11 -9 6 -5 -20 5 -31 5 -32 -4 -11 -12 28 -6 56 10 46 5 -3 10
-12 10 -18z m-34 -32 c8 -20 12 -40 9 -45 -7 -11 -35 -2 -35 12 0 6 6 8 14 5
9 -4 12 0 9 13 -7 26 -33 13 -33 -16 0 -13 5 -24 10 -24 6 0 10 -7 10 -15 0
-8 -9 -15 -19 -15 -11 0 -23 -4 -26 -10 -3 -5 -21 -10 -38 -10 -21 0 -57 -17
-106 -49 -76 -51 -153 -73 -174 -52 -16 16 -83 13 -97 -4 -7 -8 -29 -20 -50
-26 -37 -11 -39 -10 -79 30 -22 22 -48 41 -57 41 -9 0 -14 6 -11 13 2 6 15 11
28 9 53 -7 72 -11 78 -18 3 -4 -2 -4 -12 -1 -12 4 -16 3 -11 -4 9 -14 47 -4
116 31 34 18 64 27 74 23 12 -4 15 -3 10 5 -10 16 5 15 27 -2 15 -12 16 -14 2
-20 -8 -3 -26 -1 -40 4 -14 5 -25 6 -25 1 0 -5 13 -12 29 -16 22 -5 41 1 77
23 27 16 61 32 77 36 15 3 27 11 27 16 0 5 12 2 28 -6 24 -12 28 -12 39 2 6 9
10 25 8 35 -2 11 0 17 5 14 5 -3 13 3 19 12 6 10 11 13 11 6 0 -6 -7 -19 -16
-27 -12 -12 -12 -16 -2 -17 10 0 10 -2 1 -6 -7 -2 -13 -9 -13 -14 0 -6 6 -7
13 -2 6 4 21 6 32 5 25 -3 56 17 38 25 -7 2 -13 9 -13 14 0 6 5 7 10 4 6 -3
10 5 10 19 0 20 8 30 28 35 2 1 10 -15 18 -34z m-216 15 c0 -5 -4 -10 -10 -10
-5 0 -10 5 -10 10 0 6 5 10 10 10 6 0 10 -4 10 -10z m1495 0 c5 -8 -55 -3 -63
4 -2 3 10 4 27 4 18 -1 34 -4 36 -8z m9 -29 c7 -6 17 -7 21 -3 5 4 5 1 0 -7
-5 -9 -3 -12 6 -9 8 3 13 11 12 17 -7 29 52 -9 60 -39 4 -16 -3 -26 -31 -44
-20 -13 -45 -32 -55 -44 -16 -17 -23 -18 -57 -10 -53 14 -84 4 -124 -38 -22
-23 -38 -33 -49 -28 -22 8 -21 11 4 64 14 29 20 55 16 80 -5 39 10 69 31 63
19 -7 14 -64 -8 -100 -15 -25 -16 -33 -6 -33 7 0 19 14 26 30 17 40 28 46 45
24 11 -16 18 -17 43 -8 25 10 33 9 46 -4 19 -19 34 -8 17 12 -13 15 -2 28 27
32 17 3 44 25 38 32 -3 2 -12 -3 -21 -12 -15 -14 -18 -14 -37 3 -20 19 -54 18
-42 -1 4 -7 9 -7 13 0 4 6 11 5 18 -3 21 -22 -9 -25 -36 -4 -13 11 -18 19 -12
19 6 0 11 5 11 11 0 5 -4 7 -10 4 -5 -3 -10 -1 -10 5 0 12 46 6 64 -9z m-1387
-33 c-3 -8 -6 -5 -6 6 -1 11 2 17 5 13 3 -3 4 -12 1 -19z m-227 -17 c0 -6 -4
-13 -10 -16 -5 -3 -10 -11 -10 -18 0 -8 3 -8 12 1 7 7 16 12 21 12 5 0 1 -7
-8 -16 -15 -16 -18 -15 -38 5 -18 18 -19 21 -4 15 10 -3 17 -3 16 2 -3 16 1
24 11 24 6 0 10 -4 10 -9z m93 -4 c-3 -5 -14 -7 -24 -4 -10 3 -20 0 -22 -7 -2
-6 -8 -7 -13 -3 -5 4 -3 11 4 16 17 10 62 9 55 -2z m1447 -8 c0 -5 -7 -9 -15
-9 -9 0 -12 6 -9 15 6 15 24 11 24 -6z m250 -261 c0 -21 5 -38 11 -38 5 0 8
-4 5 -9 -3 -5 1 -11 8 -14 8 -3 17 -1 19 6 3 9 12 7 33 -5 16 -9 30 -20 31
-25 2 -4 -12 -25 -30 -46 -30 -35 -34 -37 -62 -26 -17 6 -38 22 -48 35 -16 22
-16 26 -2 53 23 46 19 76 -17 106 -24 20 -28 29 -18 35 8 5 24 0 42 -13 22
-16 28 -29 28 -59z m110 48 c0 -2 -8 -10 -17 -17 -16 -13 -17 -12 -4 4 13 16
21 21 21 13z m-15 -48 c4 4 3 -2 -2 -13 -6 -11 -8 -27 -5 -35 4 -10 -1 -8 -14
4 -10 11 -19 32 -20 48 -2 28 -1 28 16 8 9 -11 21 -16 25 -12z m-78 -10 c-3
-7 -5 -2 -5 12 0 14 2 19 5 13 2 -7 2 -19 0 -25z"/>
<path d="M1480 1140 c0 -6 7 -10 15 -10 8 0 15 2 15 4 0 2 -7 6 -15 10 -8 3
-15 1 -15 -4z"/>
<path d="M1337 1074 c-10 -10 24 -33 52 -34 15 0 21 -5 18 -14 -3 -8 1 -13 11
-12 9 0 16 -5 14 -12 -2 -9 8 -6 25 8 17 13 35 19 49 16 13 -4 35 -1 51 5 42
16 13 27 -87 32 -47 3 -94 8 -105 12 -11 3 -24 3 -28 -1z"/>
<path d="M1605 1060 c3 -5 8 -10 11 -10 2 0 4 5 4 10 0 6 -5 10 -11 10 -5 0
-7 -4 -4 -10z"/>
<path d="M2505 550 c3 -5 8 -10 11 -10 2 0 4 5 4 10 0 6 -5 10 -11 10 -5 0 -7
-4 -4 -10z"/>
<path d="M503 1685 c-18 -8 -33 -18 -33 -24 0 -18 -52 -71 -69 -71 -20 0 -91
-70 -91 -89 0 -7 9 -24 20 -38 15 -19 18 -34 14 -68 -4 -25 -2 -45 4 -49 6 -3
31 8 56 25 34 24 59 33 100 37 31 2 54 8 51 11 -2 4 5 22 16 39 24 40 24 41
-3 52 -15 6 -18 9 -7 9 12 1 15 8 11 29 -4 22 -2 25 9 15 21 -21 34 -15 14 7
-10 11 -14 20 -8 20 5 0 18 -8 27 -19 15 -17 16 -19 1 -25 -9 -3 -21 -4 -26 0
-5 3 -9 0 -9 -5 0 -6 6 -11 13 -11 9 0 8 -3 -2 -9 -7 -5 -9 -11 -4 -14 6 -4
21 5 34 19 36 39 110 72 181 82 l63 8 -50 32 c-63 40 -85 40 -129 1 -29 -25
-38 -28 -56 -19 -11 6 -20 17 -20 25 0 17 -38 45 -60 45 -8 -1 -30 -7 -47 -15z
m89 -38 c48 -49 64 -52 95 -17 31 35 59 38 110 10 l38 -20 -45 0 c-30 -1 -58
-9 -85 -25 -49 -30 -72 -31 -101 -4 l-22 21 -7 -21 c-3 -12 -13 -21 -21 -21
-8 0 -14 -4 -14 -10 0 -5 -7 -10 -15 -10 -8 0 -15 5 -15 10 0 6 -7 10 -15 10
-8 0 -15 -4 -15 -9 0 -12 25 -21 58 -21 23 -1 24 -2 10 -11 -12 -7 -24 -6 -38
1 -29 16 -42 3 -35 -33 5 -24 4 -28 -4 -17 -8 10 -13 12 -18 4 -5 -6 -19 -17
-33 -24 -23 -12 -23 -13 -5 -20 29 -10 65 -6 75 9 6 10 9 10 15 1 11 -18 -13
-29 -57 -25 -35 3 -38 2 -26 -12 11 -14 10 -15 -11 -8 -14 4 -21 3 -18 -2 4
-5 -1 -20 -10 -33 -16 -22 -17 -22 -23 -4 -4 10 -3 29 3 41 7 17 4 28 -18 57
l-28 37 29 30 c16 17 47 38 70 48 27 12 46 29 55 49 26 59 74 66 121 19z m-66
-176 c28 5 34 -1 22 -21 -12 -19 -13 -19 -35 5 -25 27 -31 44 -9 26 8 -6 18
-11 22 -10z"/>
<path d="M427 1500 c-6 -24 -1 -25 19 -6 18 18 18 26 0 26 -7 0 -16 -9 -19
-20z"/>
<path d="M1590 1668 l-25 -10 25 -10 c14 -5 60 -8 102 -6 42 2 75 1 72 -1 -4
-5 27 -30 39 -31 4 0 7 7 7 15 0 8 -18 24 -40 35 -43 22 -136 26 -180 8z"/>
<path d="M1598 1559 l-23 -20 27 5 c18 4 30 1 36 -9 8 -16 36 -16 62 0 8 5 24
9 34 10 24 0 32 21 11 28 -8 4 -15 2 -15 -2 0 -5 -8 -8 -17 -6 -71 14 -93 13
-115 -6z"/>
<path d="M2130 1560 c-8 -5 -10 -10 -5 -10 6 0 17 5 25 10 8 5 11 10 5 10 -5
0 -17 -5 -25 -10z"/>
<path d="M1432 1510 c0 -14 2 -19 5 -12 2 6 2 18 0 25 -3 6 -5 1 -5 -13z"/>
<path d="M2690 1358 c-19 -5 -39 -16 -43 -24 -4 -8 -17 -14 -27 -14 -11 0 -20
-3 -20 -8 0 -10 28 -52 56 -82 22 -24 23 -29 13 -98 -9 -67 -9 -75 8 -88 10
-7 24 -14 31 -14 6 0 12 -5 12 -11 0 -14 62 -1 72 15 4 6 8 19 8 29 0 10 11
33 25 51 30 40 31 55 4 90 -14 18 -19 36 -16 54 10 51 -33 114 -75 111 -7 0
-29 -5 -48 -11z m95 -34 c18 -28 14 -80 -9 -123 l-13 -24 0 27 c0 31 -4 37
-29 40 -23 3 -27 33 -6 45 13 8 14 13 4 35 -11 24 -10 26 12 26 14 0 30 -10
41 -26z m-88 -4 c-1 -21 -31 -28 -42 -10 -4 6 1 7 11 3 13 -5 15 -3 9 7 -5 9
-4 11 3 6 7 -4 12 -2 12 3 0 6 2 11 4 11 3 0 4 -9 3 -20z m28 -117 c-2 -10 -4
-20 -5 -23 -1 -3 -2 -9 -1 -13 1 -5 -4 -5 -10 -2 -7 5 -7 11 -1 17 6 6 8 17 5
24 -3 8 -1 14 5 14 6 0 9 -8 7 -17z m93 -15 c18 -18 15 -43 -8 -63 -18 -16
-20 -16 -26 -1 -3 9 -12 16 -20 16 -8 0 -11 6 -7 16 4 11 8 12 13 4 5 -8 10
-2 14 14 7 29 16 32 34 14z m-104 -58 c-10 -4 -21 -6 -24 -3 -8 7 24 22 34 16
5 -4 1 -10 -10 -13z m0 -24 c-10 -8 -21 -12 -24 -10 -5 6 21 24 34 24 6 0 1
-6 -10 -14z m66 -31 c0 -14 -8 -29 -19 -35 -26 -14 -31 -13 -31 6 0 11 -5 14
-17 10 -10 -4 -5 5 11 19 37 32 56 32 56 0z"/>
<path d="M2748 1252 c32 -33 41 -32 22 3 -7 14 -21 25 -31 25 -15 0 -13 -5 9
-28z"/>
<path d="M700 1336 c0 -2 8 -10 18 -17 15 -13 16 -12 3 4 -13 16 -21 21 -21
13z"/>
<path d="M1680 415 c0 -21 5 -25 30 -25 25 0 30 4 30 25 0 21 -5 25 -30 25
-25 0 -30 -4 -30 -25z"/>
<path d="M960 300 l0 -130 30 0 c29 0 30 1 30 50 0 47 2 50 25 50 20 0 30 -10
50 -50 22 -44 29 -50 56 -50 27 0 30 3 23 23 -11 36 -31 72 -49 87 -14 12 -14
15 5 32 13 12 20 31 20 54 0 31 -4 37 -35 50 -19 7 -62 14 -95 14 l-60 0 0
-130z m125 50 c0 -21 -5 -26 -32 -28 -31 -3 -33 -1 -33 28 0 29 2 31 33 28 27
-2 32 -7 32 -28z"/>
<path d="M1273 356 c-37 -17 -53 -43 -53 -88 0 -68 60 -106 146 -93 34 5 44
10 44 25 0 17 -6 18 -50 13 -33 -4 -55 -2 -65 7 -28 23 -15 30 55 30 l70 0 0
29 c0 66 -79 107 -147 77z m85 -48 c3 -15 -4 -18 -37 -18 -43 0 -50 7 -29 28
18 18 62 11 66 -10z"/>
<path d="M1513 355 c-86 -37 -66 -162 28 -180 45 -8 89 9 89 34 0 17 -5 18
-40 14 -48 -7 -70 8 -70 47 0 39 22 54 70 47 35 -4 40 -3 40 14 0 12 -10 23
-26 29 -33 13 -52 12 -91 -5z"/>
<path d="M1680 270 l0 -100 30 0 30 0 0 100 0 100 -30 0 -30 0 0 -100z"/>
<path d="M1843 355 c-37 -16 -53 -42 -53 -87 0 -69 67 -111 141 -89 86 26 91
151 8 180 -41 14 -57 13 -96 -4z m89 -60 c16 -35 -3 -75 -35 -75 -30 0 -47 18
-47 50 0 52 61 71 82 25z"/>
</g>
</svg>
